<svg xmlns="http://www.w3.org/2000/svg" xmlns:xlink="http://www.w3.org/1999/xlink" version="1.1" x="0px" y="0px" viewBox="0 0 64 80" enable-background="new 0 0 64 64" xml:space="preserve"><g><g><g><path fill="#fff" d="M47.198,52.003c0-0.64-0.412-1.227-1.143-1.729c-0.286,0.321-0.668,0.618-1.14,0.888c0.319,0.257,0.502,0.527,0.523,0.79     c0.001,0.017,0.002,0.034,0.002,0.052c0,1.124-2.954,2.377-7.192,2.377c-4.153,0-7.073-1.203-7.188-2.31     c-0.003-0.022-0.004-0.045-0.004-0.067c0-0.052,0.009-0.105,0.021-0.158c-0.151-0.05-0.299-0.102-0.441-0.157     c-0.406-0.156-0.772-0.327-1.097-0.511c-0.157,0.263-0.242,0.539-0.242,0.826l0.019,3.063c0,1.959,3.848,3.435,8.95,3.435     c4.903,0,8.647-1.363,8.932-3.208c0.012-0.075,0.017-0.151,0.017-0.227v-0.053L47.198,52.003z M39.386,58.011h-2.277v-2.895     h2.277V58.011z"/></g><path fill="#fff" d="M46.162,48.691l-0.018-3.01c0-1.959-3.848-3.436-8.95-3.436s-8.95,1.477-8.95,3.436l0.019,3.063    c0,1.959,3.848,3.435,8.95,3.435c4.903,0,8.647-1.363,8.932-3.208c0.012-0.075,0.017-0.151,0.017-0.227 M38.332,51.69h-2.277    v-2.895h2.277V51.69z M37.194,48.058c-4.153,0-7.073-1.203-7.188-2.31c-0.003-0.022-0.004-0.045-0.004-0.067    c0-1.124,2.954-2.377,7.192-2.377c4.173,0,7.101,1.215,7.19,2.326c0.001,0.017,0.002,0.034,0.002,0.052    C44.386,46.805,41.432,48.058,37.194,48.058z"/></g><g><g><path fill="#fff" d="M26.021,45.681c0-0.64-0.412-1.227-1.143-1.729c-0.286,0.321-0.668,0.618-1.14,0.888c0.319,0.257,0.502,0.527,0.523,0.79     c0.001,0.017,0.002,0.034,0.002,0.052c0,1.124-2.954,2.377-7.192,2.377c-4.153,0-7.073-1.203-7.188-2.31     c-0.003-0.022-0.004-0.045-0.004-0.067c0-0.052,0.009-0.105,0.021-0.158c-0.151-0.05-0.299-0.102-0.441-0.157     c-0.406-0.156-0.772-0.327-1.097-0.511c-0.157,0.263-0.242,0.539-0.242,0.826l0.019,3.063c0,1.959,3.848,3.435,8.95,3.435     c4.903,0,8.647-1.363,8.932-3.208c0.012-0.075,0.017-0.151,0.017-0.227v-0.053L26.021,45.681z M18.21,51.69h-2.277v-2.895h2.277     V51.69z"/></g><g><path fill="#fff" d="M23.86,51.61c-0.127,0.052-0.258,0.103-0.394,0.152c-0.411,0.148-0.857,0.28-1.331,0.395     c-0.254,1.081-3.127,2.222-7.172,2.222c-4.153,0-7.073-1.203-7.188-2.31c-0.003-0.022-0.004-0.045-0.004-0.067     c0-0.404,0.384-0.825,1.071-1.199c-0.403-0.299-0.711-0.625-0.918-0.972c-1.205,0.584-1.911,1.333-1.911,2.171l0.019,3.063     c0,1.959,3.848,3.435,8.95,3.435c4.903,0,8.647-1.363,8.932-3.208c0.012-0.075,0.017-0.151,0.017-0.227v-0.053l-0.018-3.01     C23.914,51.869,23.895,51.739,23.86,51.61z M16.103,58.011h-2.277v-2.895h2.277V58.011z"/></g><path fill="#fff" d="M24.986,42.37l-0.018-3.01c0-1.959-3.848-3.436-8.95-3.436s-8.95,1.477-8.95,3.436l0.019,3.063    c0,1.959,3.848,3.435,8.95,3.435c4.903,0,8.647-1.363,8.932-3.208c0.012-0.075,0.017-0.151,0.017-0.227 M17.156,45.369h-2.277    v-2.895h2.277V45.369z M16.018,41.737c-4.153,0-7.073-1.203-7.188-2.31c-0.003-0.022-0.004-0.045-0.004-0.067    c0-1.124,2.954-2.377,7.192-2.377c4.173,0,7.101,1.215,7.19,2.326c0.001,0.017,0.002,0.034,0.002,0.052    C23.21,40.484,20.256,41.737,16.018,41.737z"/></g><g><g><path fill="#fff" d="M63.097,35.167l-1.546-6.485L56.562,7.762c-0.377-1.581-1.965-2.558-3.547-2.181L3.079,17.488     c-1.581,0.377-2.558,1.965-2.181,3.546l4.304,18.048c0.082-0.978,0.644-2.487,3.033-3.619l-1.997-8.374l0.001,0     c1.718-0.434,6.554-2.164,5.159-7.687l35.522-8.47c0.126,0.485,0.352,1.196,0.729,1.943c0.988,1.962,3.012,4.168,6.985,3.141     l3.164,13.268c-1.718,0.433-6.555,2.164-5.158,7.688l-14.341,3.42c2.269,0.093,4.354,0.469,5.958,1.085     c0.752,0.289,1.355,0.612,1.841,0.951l4.306-1.027l10.384-2.476C62.462,38.525,63.497,36.843,63.097,35.167z"/></g><g><path fill="#fff" d="M29.714,18.524c-5.336,1.272-8.63,6.63-7.358,11.966s6.63,8.63,11.966,7.358s8.63-6.63,7.358-11.966     S35.05,17.252,29.714,18.524z M37.24,31.577c-0.133,0.578-0.387,1.096-0.768,1.554c-0.383,0.459-0.869,0.851-1.461,1.175     c-0.232,0.129-0.48,0.245-0.736,0.349l0.27,1.133l-1.486,0.354l-0.248-1.039c-0.377,0.08-0.744,0.134-1.1,0.16     c-0.422,0.029-0.807,0.032-1.153,0.004c-0.345-0.025-0.636-0.065-0.877-0.123c-0.24-0.055-0.419-0.12-0.54-0.188     c-0.121-0.071-0.232-0.2-0.332-0.388c-0.101-0.188-0.198-0.479-0.292-0.872c-0.062-0.258-0.104-0.468-0.121-0.627     c-0.021-0.161-0.024-0.293-0.01-0.393c0.014-0.103,0.042-0.176,0.088-0.22c0.046-0.044,0.11-0.075,0.19-0.094     c0.099-0.024,0.257-0.003,0.475,0.063c0.22,0.065,0.488,0.131,0.805,0.196c0.317,0.067,0.68,0.111,1.087,0.137     c0.407,0.026,0.851-0.019,1.331-0.134c0.304-0.073,0.566-0.165,0.787-0.285c0.222-0.119,0.406-0.258,0.552-0.415     c0.146-0.157,0.244-0.336,0.291-0.536c0.047-0.2,0.041-0.416-0.014-0.648c-0.064-0.268-0.201-0.478-0.411-0.63     c-0.213-0.153-0.47-0.268-0.777-0.346c-0.307-0.077-0.645-0.137-1.018-0.181c-0.373-0.044-0.758-0.097-1.157-0.163     c-0.396-0.066-0.79-0.156-1.18-0.27c-0.392-0.113-0.756-0.282-1.097-0.502c-0.338-0.221-0.64-0.511-0.901-0.875     c-0.262-0.361-0.459-0.822-0.593-1.385c-0.136-0.57-0.15-1.121-0.039-1.653c0.109-0.529,0.333-1.014,0.672-1.454     c0.337-0.438,0.787-0.823,1.343-1.155c0.249-0.146,0.518-0.279,0.804-0.396l-0.266-1.116l1.486-0.354l0.247,1.036     c0.268-0.054,0.535-0.092,0.8-0.114c0.365-0.031,0.7-0.039,1.004-0.028c0.304,0.012,0.567,0.044,0.784,0.089     c0.218,0.048,0.38,0.093,0.48,0.141c0.101,0.047,0.177,0.098,0.227,0.158c0.052,0.059,0.098,0.132,0.14,0.222     c0.039,0.09,0.084,0.202,0.129,0.337c0.047,0.134,0.093,0.305,0.142,0.51c0.058,0.242,0.099,0.438,0.121,0.594     c0.024,0.155,0.029,0.282,0.019,0.378c-0.011,0.094-0.037,0.165-0.083,0.209c-0.046,0.044-0.104,0.076-0.177,0.093     c-0.08,0.019-0.217,0.001-0.408-0.051c-0.192-0.054-0.428-0.105-0.707-0.15s-0.598-0.077-0.956-0.091     c-0.356-0.015-0.748,0.03-1.176,0.132c-0.304,0.073-0.56,0.167-0.767,0.283c-0.21,0.116-0.37,0.249-0.484,0.399     c-0.117,0.151-0.191,0.311-0.224,0.485c-0.036,0.172-0.032,0.35,0.011,0.526c0.066,0.278,0.206,0.49,0.422,0.635     c0.214,0.148,0.475,0.259,0.787,0.336c0.31,0.079,0.656,0.137,1.038,0.179c0.382,0.039,0.772,0.092,1.167,0.153     c0.397,0.061,0.796,0.147,1.195,0.259c0.397,0.112,0.771,0.278,1.114,0.498c0.346,0.219,0.65,0.509,0.913,0.865     c0.264,0.356,0.46,0.807,0.59,1.35C37.353,30.371,37.37,31,37.24,31.577z"/><ellipse fill="#fff" transform="matrix(0.9727 -0.2319 0.2319 0.9727 -4.2981 11.925)" cx="48.564" cy="24.241" rx="3.311" ry="3.311"/><path fill="#fff" d="M12.911,34.231c0.987-0.121,2.032-0.185,3.107-0.185c0.714,0,1.415,0.029,2.095,0.083     c0.575-0.761,0.819-1.764,0.58-2.765c-0.424-1.779-2.21-2.877-3.989-2.453c-1.779,0.424-2.877,2.21-2.453,3.989     C12.371,33.405,12.602,33.855,12.911,34.231z"/></g></g></g></svg>