<svg id="Layer_1" data-name="Layer 1" xmlns="http://www.w3.org/2000/svg" viewBox="0 0 289.51 266.03"><defs><style>.cls-1,.cls-3{fill:#010101;}.cls-1,.cls-2{fill-rule:evenodd;}.cls-2{fill:#f6b4c1;}.cls-3{stroke:#1d1d1b;stroke-miterlimit:10;}</style></defs><title>Logo Rosa Romero</title><path class="cls-1" d="M226.67,93.67s9,13,2.66,27S221.67,136,218.67,141s-2,9.67,3.33,11.33a49.23,49.23,0,0,0,8.33,2s5,2,1.34,5.34-4,8.66.66,11a17.77,17.77,0,0,0,4.34,2s-4.34,5.33-2,9,6.33,5,11,6C244,195.33,242,213.33,257.33,212S278,205.67,286,201.67s20.33-9,38-4c4.33,2,8,3.66,2,8.66s-62,51-114.67-2c-44-54.66,2.34-103,6.67-108S226,90.33,226.67,93.67Z" transform="translate(-122.52 -80.75)"/><path class="cls-2" d="M279,110s2,4.75-2.25.75-10.25-9.25-7.25-18,9-7.75,10.25-7.75,5.25,1,2.5,4.5A21.44,21.44,0,0,0,279,110Z" transform="translate(-122.52 -80.75)"/><path class="cls-2" d="M282.75,112.75s-5.5-13,1.25-21.75,15-11.5,24-9.75,10.5,11,11,13,1,6.75-3.5,1.75-8.75-9.25-15.5-8.25-15.5,5.5-14.25,21.75C285.75,112.25,285.75,116.25,282.75,112.75Z" transform="translate(-122.52 -80.75)"/><path class="cls-2" d="M276,126.25s-2.5,3.5,1.25,4,8.25,3.5,13.5,8c4,2.5,3.75,2.5,3.75,2.5s3,2.5-.75,2.5-21-1-26-6-5-8.5-4.75-14.5,0-12.5,2.5-14,5.75-1.25,8.75,4S278,123.5,276,126.25Z" transform="translate(-122.52 -80.75)"/><path class="cls-2" d="M283.75,128.5s-6,.75-3.25-3.5,4.75-5,12.5-4.75,21.5,4.25,23.5-15.75c0-1,.25-4,2.25-.75s7.5,18.5-4,28.75c-9.25,6.75-16,8.75-22.25,3.25S283.75,128.5,283.75,128.5Z" transform="translate(-122.52 -80.75)"/><path class="cls-2" d="M298.25,149.25s-2.75-3.5,1.75-4.75,19.75-5.25,24.25-18.5,1.5-20.25.5-24.75-.75-10.5,4-7.25,10.75,9.25,5.75,22.5c-.5,2-.25,3.5,1.75,4.5s5.75,6.5.5,11.5-11,7.5-14,9.5-4.75,6.75-5.25,8.75-4.75,4.5-12.25,2.25A45.68,45.68,0,0,1,298.25,149.25Z" transform="translate(-122.52 -80.75)"/><path class="cls-2" d="M298.25,101.5s-4.5.25-.5-3.5c2.75-2,7.75-1.5,9.25,1s-.5,8.75-3.25,12.75-8,6.75-11.75,5.25-4-5.75-3-12.5S294.5,90,304.5,91c4,.75,10.25,4.25,9.25,12.5s-4,11-6.25,12-2.5-1-.75-4,6-9.25,2.25-14.75S297.25,95,295.75,96.5s-3.25,8,1.5,9.5,6.5-.75,6.5-3.5S300.25,96,298.25,101.5Z" transform="translate(-122.52 -80.75)"/><path class="cls-3" d="M195.85,255.88a8.56,8.56,0,0,1-.86,3.76,10.57,10.57,0,0,1-2.32,3.14,14.5,14.5,0,0,1-3.5,2.32,15.17,15.17,0,0,1-4.37,1.28c.39,1.24.87,2.52,1.42,3.84s1.19,2.55,1.84,3.76a36.26,36.26,0,0,0,2.05,3.35,17.23,17.23,0,0,0,2.08,2.52,3,3,0,0,1-.59.82,3.71,3.71,0,0,1-.86.75,4,4,0,0,1-1,.58,2.32,2.32,0,0,1-1,.24,2.25,2.25,0,0,1-1.65-.86,10.67,10.67,0,0,1-1.61-2.73c-.53-1.27-1.09-2.89-1.69-4.88s-1.22-4.42-1.93-7.23H181a2.25,2.25,0,0,1-.67-.08,2.12,2.12,0,0,1-.59-.58q-1.06,2.4-1.89,4.5c-.55,1.41-1.05,2.77-1.5,4.1s-.8,2.56-1.14,3.8-.59,2.45-.82,3.72a5.37,5.37,0,0,1-2.32-1.2,8.8,8.8,0,0,1-1.85-2.44c.1-.25.21-.48.31-.7s.29-.58.47-1,.41-1,.67-1.66.66-1.54,1.1-2.64,1-2.45,1.66-4.05,1.44-3.54,2.36-5.83c.42-1,.77-1.91,1.06-2.68s.59-1.51.82-2.19.45-1.42.63-2.11.42-1.53.63-2.44a28.24,28.24,0,0,0-3.38,1.49,12.62,12.62,0,0,0-2.56,1.69,3.67,3.67,0,0,1-.74-.74,9.43,9.43,0,0,1-.67-1.08,10.42,10.42,0,0,1-.55-1.24,4.1,4.1,0,0,1-.28-1.11,15.6,15.6,0,0,1,2.87-1.53,29,29,0,0,1,3.66-1.2,32.66,32.66,0,0,1,3.93-.83,26.83,26.83,0,0,1,3.74-.29q4.73,0,7.32,2.07A6.68,6.68,0,0,1,195.85,255.88Zm-9.59-3.47a11.84,11.84,0,0,0-.87,1.49c-.39.74-.85,1.64-1.38,2.68l-1.61,3.35c-.55,1.21-1.09,2.41-1.61,3.6a24.31,24.31,0,0,0,5.43-.58,15.91,15.91,0,0,0,4.28-1.62,8.86,8.86,0,0,0,2.8-2.47,5.43,5.43,0,0,0,1-3.19,3.7,3.7,0,0,0-1.42-3.14,7,7,0,0,0-4.36-1.11,10,10,0,0,0-1.34.08l-1.42.12ZM199.1,280.1a5,5,0,0,1-3.58-2.07,7.56,7.56,0,0,1-1.34-4.63,13.59,13.59,0,0,1,.47-3.43,16.71,16.71,0,0,1,1.34-3.43,18.9,18.9,0,0,1,2-3.18,15.12,15.12,0,0,1,2.56-2.56,6.73,6.73,0,0,1,4-1.7,7.22,7.22,0,0,1,2.48,2.94h.35a1.37,1.37,0,0,1,.36,0c1.39,0,2.08,1.29,2.08,3.88a14.88,14.88,0,0,1-.82,5,14.7,14.7,0,0,1-2.25,4.21,13.18,13.18,0,0,1-7.74,5.05Zm2-13a20.28,20.28,0,0,0-1.26,2.07,20,20,0,0,0-1,2.27,14.78,14.78,0,0,0-.67,2.19,8.26,8.26,0,0,0-.23,1.86,5.78,5.78,0,0,0,.31,1.9c.21.6.45.95.71,1a8.19,8.19,0,0,0,3.22-1.53,10.8,10.8,0,0,0,2.56-2.85,13.65,13.65,0,0,0,1.69-3.84,16.22,16.22,0,0,0,.63-4.59,9.25,9.25,0,0,0-.12-1.69,3.36,3.36,0,0,0-.39-1.08,8.62,8.62,0,0,0-3.11,1.74A17.54,17.54,0,0,0,201.1,267.08Zm24.28-4.88a7.26,7.26,0,0,1-.27,1.66,8.21,8.21,0,0,1-.51,1.52,5.52,5.52,0,0,1-.67,1.12c-.24.3-.46.45-.67.45s-.46-.23-.51-.61a1.51,1.51,0,0,1,.08-.38c.08-.19.16-.4.23-.62a5.53,5.53,0,0,0,.2-.66,1.72,1.72,0,0,0,.12-.58,1.53,1.53,0,0,0-.28-1,.73.73,0,0,0-.66-.41q-1.58,0-2.4,2.07a17.11,17.11,0,0,0-.83,6.07,1.59,1.59,0,0,0,0,.5c.55,0,1,0,1.45,0s.88,0,1.3,0a.85.85,0,0,1,0,.33.74.74,0,0,1-.16.54c-.6.14-1.08.26-1.45.37a6.3,6.3,0,0,0-.79.25.66.66,0,0,0-.35.29,1.18,1.18,0,0,0,0,.37v.66a6.47,6.47,0,0,1,0,.83,8.27,8.27,0,0,1-1.81,5.58,7.15,7.15,0,0,1-5,2.44,3.31,3.31,0,0,1-1.14-.33,6,6,0,0,1-1.14-.75,5.24,5.24,0,0,1-.9-1,3.34,3.34,0,0,1-.55-1.12,7.2,7.2,0,0,1,.63-3,8,8,0,0,1,1.69-2.52,8.31,8.31,0,0,1,2.55-1.78,9.22,9.22,0,0,1,3.23-.83,10.48,10.48,0,0,0-.2-2c-.13-.66-.27-1.3-.43-1.9s-.26-1.24-.39-1.82a8.52,8.52,0,0,1-.2-1.78,5.81,5.81,0,0,1,.43-2.19,8,8,0,0,1,1.14-2,7.23,7.23,0,0,1,1.66-1.61,5.62,5.62,0,0,1,2-.91,3.36,3.36,0,0,1,1.14.74,13.71,13.71,0,0,1,1.46,1.32,14.58,14.58,0,0,1,1.26,1.53A3.68,3.68,0,0,1,225.38,262.2Zm-13,18.85a6.6,6.6,0,0,0,1.77-1.2,9.09,9.09,0,0,0,1.49-1.78,8.62,8.62,0,0,0,1-2.11,6.35,6.35,0,0,0,.4-2.19,4.37,4.37,0,0,0-1.73.79,9,9,0,0,0-1.77,1.53,9.71,9.71,0,0,0-1.38,1.82,3.37,3.37,0,0,0-.55,1.65A1.78,1.78,0,0,0,212.41,281.05ZM239,262a3.06,3.06,0,0,1,.91.17,3.69,3.69,0,0,1,1,.37,3,3,0,0,1,.71.46c.21.16.31.31.31.45-.52,1.16-1,2.33-1.45,3.51s-.83,2.28-1.14,3.35-.57,2.08-.75,3a14.7,14.7,0,0,0-.24,2.44,6.75,6.75,0,0,0,.24,1.94,1.85,1.85,0,0,0,.79,1.07,4.07,4.07,0,0,1-1.22.54,5.05,5.05,0,0,1-1.34.21c-1.42,0-2.12-1-2.12-3.06a20.14,20.14,0,0,1,1.49-6.45,26.33,26.33,0,0,1-1.81,3.6,26.71,26.71,0,0,1-2.08,2.93,13,13,0,0,1-2.17,2.11,4.88,4.88,0,0,1-2,.95,3,3,0,0,1-2.36-1.45,6.37,6.37,0,0,1-.91-3.55,14.15,14.15,0,0,1,.95-4.88,22.76,22.76,0,0,1,2.4-4.75,17.77,17.77,0,0,1,3.22-3.64,5.72,5.72,0,0,1,3.34-1.57,3,3,0,0,1,.87.5,5.92,5.92,0,0,1,.94.87,5.34,5.34,0,0,1,.79,1,2,2,0,0,1,.35.87,7,7,0,0,0-3.26,1.61,17,17,0,0,0-3,3.31,19.16,19.16,0,0,0-2.2,4.09,11.11,11.11,0,0,0-.87,4.09.94.94,0,0,0,.55,1,5.53,5.53,0,0,0,2.64-2,42.08,42.08,0,0,0,3.62-5.57c.26-.5.55-1.05.86-1.66s.68-1.24,1-1.9.66-1.32,1-2S238.69,262.59,239,262Zm41.18-6.07a8.42,8.42,0,0,1-.86,3.76,10.57,10.57,0,0,1-2.32,3.14,14.5,14.5,0,0,1-3.5,2.32,15.17,15.17,0,0,1-4.37,1.28c.39,1.24.87,2.52,1.42,3.84s1.19,2.55,1.85,3.76a34.18,34.18,0,0,0,2,3.35,16.63,16.63,0,0,0,2.09,2.52,3.5,3.5,0,0,1-.59.82,4,4,0,0,1-.87.75,3.84,3.84,0,0,1-1,.58,2.32,2.32,0,0,1-1,.24,2.25,2.25,0,0,1-1.65-.86,10.67,10.67,0,0,1-1.61-2.73c-.52-1.27-1.09-2.89-1.69-4.88s-1.22-4.42-1.93-7.23h-.86a2.25,2.25,0,0,1-.67-.08,2.12,2.12,0,0,1-.59-.58q-1.07,2.4-1.89,4.5c-.55,1.41-1,2.77-1.5,4.1s-.79,2.56-1.14,3.8-.59,2.45-.82,3.72a5.37,5.37,0,0,1-2.32-1.2,9,9,0,0,1-1.85-2.44c.1-.25.21-.48.31-.7s.29-.58.48-1,.4-1,.66-1.66.66-1.54,1.11-2.64,1-2.45,1.65-4.05,1.44-3.54,2.36-5.83c.42-1,.77-1.91,1.06-2.68s.59-1.51.83-2.19.44-1.42.62-2.11.42-1.53.63-2.44a28.24,28.24,0,0,0-3.38,1.49,12.62,12.62,0,0,0-2.56,1.69,3.67,3.67,0,0,1-.74-.74,9.43,9.43,0,0,1-.67-1.08,12.34,12.34,0,0,1-.55-1.24,4.1,4.1,0,0,1-.28-1.11,15.6,15.6,0,0,1,2.87-1.53,29,29,0,0,1,3.66-1.2,32.42,32.42,0,0,1,3.94-.83,26.58,26.58,0,0,1,3.73-.29q4.72,0,7.32,2.07A6.68,6.68,0,0,1,280.16,255.88Zm-9.59-3.47a11.84,11.84,0,0,0-.87,1.49c-.39.74-.85,1.64-1.38,2.68l-1.61,3.35c-.55,1.21-1.09,2.41-1.61,3.6a24.18,24.18,0,0,0,5.43-.58,15.91,15.91,0,0,0,4.28-1.62,8.86,8.86,0,0,0,2.8-2.47,5.43,5.43,0,0,0,1-3.19,3.7,3.7,0,0,0-1.42-3.14,7,7,0,0,0-4.36-1.11,10,10,0,0,0-1.34.08l-1.42.12Zm12.84,27.69a5,5,0,0,1-3.58-2.07,7.63,7.63,0,0,1-1.34-4.63A13.59,13.59,0,0,1,279,270a16.71,16.71,0,0,1,1.34-3.43,19.55,19.55,0,0,1,2-3.18,15.12,15.12,0,0,1,2.56-2.56,6.73,6.73,0,0,1,4.05-1.7,7.22,7.22,0,0,1,2.48,2.94h.35a1.37,1.37,0,0,1,.36,0c1.39,0,2.08,1.29,2.08,3.88a14.88,14.88,0,0,1-.82,5,14.7,14.7,0,0,1-2.25,4.21,13.18,13.18,0,0,1-7.74,5.05Zm2-13a20.28,20.28,0,0,0-1.26,2.07,20,20,0,0,0-1,2.27,14.78,14.78,0,0,0-.67,2.19,8.26,8.26,0,0,0-.23,1.86,5.78,5.78,0,0,0,.31,1.9c.21.6.45.95.71,1a8.19,8.19,0,0,0,3.22-1.53A10.8,10.8,0,0,0,289,274a13.65,13.65,0,0,0,1.69-3.84,16.22,16.22,0,0,0,.63-4.59,9.25,9.25,0,0,0-.12-1.69,3.36,3.36,0,0,0-.39-1.08,8.62,8.62,0,0,0-3.11,1.74A17.54,17.54,0,0,0,285.41,267.08ZM318.86,266a2.83,2.83,0,0,0-1.53.87,16.72,16.72,0,0,0-2,2.07c-.68.82-1.4,1.75-2.16,2.77s-1.46,2-2.17,3.05l-1.92,2.81c-.61.89-1.12,1.59-1.54,2.11a4.26,4.26,0,0,1-1.49-1.07,4.59,4.59,0,0,1-.91-1.82c.13-.86.32-1.74.55-2.65a28.88,28.88,0,0,1,.91-2.89c.39-1,.86-2,1.41-3.1a39,39,0,0,1,2.09-3.47,3.31,3.31,0,0,0-1.61.91,17.34,17.34,0,0,0-2.21,2.19c-.78.88-1.6,1.89-2.44,3s-1.62,2.19-2.36,3.26c-1,1.43-1.78,2.69-2.43,3.76a6.83,6.83,0,0,1-1.38,1.9,4.49,4.49,0,0,1-1.42-1.69,9.11,9.11,0,0,1-.59-2,22.57,22.57,0,0,1,.28-2.48,26.53,26.53,0,0,1,.75-3.05,41.4,41.4,0,0,1,2.32-6q1.45-3,2.79-5.45a6.49,6.49,0,0,1,2,.78,9.35,9.35,0,0,1,1.88,1.57,12.79,12.79,0,0,1-1.22,2.73l-1.73,3c-.6,1-1.15,2.12-1.65,3.22a12.19,12.19,0,0,0-1,3.35c.73-1.1,1.6-2.37,2.59-3.8s2.06-2.79,3.11-4.05a27.17,27.17,0,0,1,3.19-3.23,4.64,4.64,0,0,1,2.83-1.32,3.56,3.56,0,0,1,1,.17,5.53,5.53,0,0,1,1,.41,4.58,4.58,0,0,1,.78.5q.32.19.36.33a11.6,11.6,0,0,1-.95,2.27q-.71,1.41-1.53,3c-.55,1.05-1.06,2.07-1.54,3.06a8.34,8.34,0,0,0-.82,2.32q1.92-2.78,3.62-5a47.16,47.16,0,0,1,3.18-3.89,17.72,17.72,0,0,1,2.76-2.48,4.4,4.4,0,0,1,2.43-.87,2.58,2.58,0,0,1,1.46.46,2.15,2.15,0,0,1,1,1.24,18.85,18.85,0,0,1-1.18,3c-.52,1.16-1.06,2.39-1.61,3.68s-1.05,2.52-1.49,3.76a10.58,10.58,0,0,0-.63,3.35,2.05,2.05,0,0,0,.23,1.16.9.9,0,0,0,.67.24,2.25,2.25,0,0,0,.87-.16,1.61,1.61,0,0,1,.63-.21.65.65,0,0,1,.27.42,2.42,2.42,0,0,1,0,.45,7.9,7.9,0,0,1-1.61,1.07,3.71,3.71,0,0,1-1.85.46,3.35,3.35,0,0,1-1.57-.33,2.78,2.78,0,0,1-1-.91,3.88,3.88,0,0,1-.55-1.32,8.21,8.21,0,0,1-.16-1.61A10.8,10.8,0,0,1,316,273a23.55,23.55,0,0,1,.82-2.65c.35-.85.7-1.64,1.07-2.35S318.6,266.54,318.86,266Zm21.42-4.42a14.94,14.94,0,0,1-.86,4.42,9.76,9.76,0,0,1-2.05,3.23,14.86,14.86,0,0,1-3.18,2.48,33.69,33.69,0,0,1-4.41,2.14,3.44,3.44,0,0,1,0,.54v.54a8.53,8.53,0,0,0,.08,1.11,4.08,4.08,0,0,0,.28,1.08,2.2,2.2,0,0,0,.55.83,1.37,1.37,0,0,0,.9.29,4.79,4.79,0,0,0,2.09-.5,10.64,10.64,0,0,0,1.92-1.2,16.41,16.41,0,0,0,1.73-1.57c.55-.58,1-1.1,1.46-1.57.26.25.48.48.67.7a19.63,19.63,0,0,1-3.9,4.14,10.75,10.75,0,0,1-4,2.06,6.52,6.52,0,0,1-4.25-2.06,6.45,6.45,0,0,1-1.49-4.26,14.08,14.08,0,0,1,.43-3.43,19.06,19.06,0,0,1,1.26-3.39,21.55,21.55,0,0,1,1.89-3.1,17.69,17.69,0,0,1,2.32-2.52,11.61,11.61,0,0,1,2.55-1.69,6.17,6.17,0,0,1,2.64-.62A5.25,5.25,0,0,1,340.28,261.54Zm-2.71,1.37a5.7,5.7,0,0,0-2.2.9,9.76,9.76,0,0,0-2.17,2,16.63,16.63,0,0,0-1.81,2.89,17,17,0,0,0-1.29,3.55,17.84,17.84,0,0,0,5.23-4.05A8.75,8.75,0,0,0,337.57,262.91Zm3.59,14.91c.13-.8.35-1.84.67-3.14s.73-2.71,1.18-4.17.92-3,1.41-4.46,1-2.83,1.46-4a17.8,17.8,0,0,1,.9-2,5.77,5.77,0,0,1,.87-1.24,7.34,7.34,0,0,1,1.14.29,9.61,9.61,0,0,1,1.14.5,6.11,6.11,0,0,1,1,.62,2.64,2.64,0,0,1,.67.58,16.23,16.23,0,0,0-1.89,3,37.08,37.08,0,0,0-1.61,4.34c1.42-1.32,2.66-2.59,3.74-3.8a29.86,29.86,0,0,0,3.07-4.05,1.23,1.23,0,0,1,.82-.2,2.74,2.74,0,0,1,1.06.2,1.19,1.19,0,0,1,.71.5,11.65,11.65,0,0,0-.71,3.92,5.59,5.59,0,0,0,.52,2.73,3.16,3.16,0,0,1-.55.95,9.65,9.65,0,0,1-1.07,1.32,6.48,6.48,0,0,1-1.88-1.57,6.87,6.87,0,0,1-1.22-2.23,25.5,25.5,0,0,0-3.15,2.69,13.8,13.8,0,0,0-2.24,2.89,18.88,18.88,0,0,0-1.58,3.64c-.42,1.37-.82,3-1.22,4.91a2.73,2.73,0,0,1-.86-.28,6.91,6.91,0,0,1-1-.54,7.82,7.82,0,0,1-.87-.7A2,2,0,0,1,341.16,277.82Zm21.45,2.28A5,5,0,0,1,359,278a7.63,7.63,0,0,1-1.34-4.63,13.59,13.59,0,0,1,.47-3.43,16.71,16.71,0,0,1,1.34-3.43,19,19,0,0,1,2.05-3.18,15.07,15.07,0,0,1,2.55-2.56,6.78,6.78,0,0,1,4-1.7,7.22,7.22,0,0,1,2.48,2.94H371a1.25,1.25,0,0,1,.35,0c1.39,0,2.08,1.29,2.08,3.88a14.88,14.88,0,0,1-.82,5,14.68,14.68,0,0,1-2.24,4.21,13.52,13.52,0,0,1-3.43,3.23A13.36,13.36,0,0,1,362.61,280.1Zm2-13a20.95,20.95,0,0,0-2.28,4.34,14.78,14.78,0,0,0-.67,2.19,8.88,8.88,0,0,0-.23,1.86,5.78,5.78,0,0,0,.31,1.9c.21.6.45.95.71,1a8.23,8.23,0,0,0,3.23-1.53,11,11,0,0,0,2.55-2.85,13.37,13.37,0,0,0,1.69-3.84,16.22,16.22,0,0,0,.63-4.59,10.45,10.45,0,0,0-.11-1.69,3.15,3.15,0,0,0-.4-1.08,8.62,8.62,0,0,0-3.11,1.74A17.54,17.54,0,0,0,364.61,267.08Z" transform="translate(-122.52 -80.75)"/><path class="cls-3" d="M141.39,334.38a.42.42,0,0,1-.16,0h-.31a4.91,4.91,0,0,1-1.3-.21,9.59,9.59,0,0,1-1.41-.45,6.18,6.18,0,0,1-1.18-.58,1.68,1.68,0,0,1-.59-.58c0-.39,0-.79,0-1.2v-1.2a78.11,78.11,0,0,1,.63-9.67,93.08,93.08,0,0,1,2.16-10.91c.1-.38.21-.87.31-1.44s.27-1.26.4-1.95a16,16,0,0,0-2.25,2.52q-1.29,1.69-2.75,4.05T132,317.93q-1.41,2.76-2.6,5.66t-2,5.66a26.22,26.22,0,0,0-1,5.21,8.83,8.83,0,0,1-2.64-1.16,1.75,1.75,0,0,1-.71-1.4,7.58,7.58,0,0,1,.44-2.11,33.59,33.59,0,0,1,1.22-3.22q.78-1.86,1.92-4.14t2.52-5c1-2,2.07-3.89,3.07-5.66s2-3.36,3-4.79A38.2,38.2,0,0,1,138,303.3a12.34,12.34,0,0,1,2.79-2.4,5.22,5.22,0,0,1,1.46.29,13.6,13.6,0,0,1,1.81.71,10.85,10.85,0,0,1,1.57.86c.47.28.73.51.79.71a29.42,29.42,0,0,0-1.3,3.47q-.75,2.31-1.54,5.24c-.49,2-1,4-1.45,6.24s-.8,4.28-1.06,6.29q.9-2.28,2.08-4.71c.81-1.66,1.67-3.28,2.56-4.88s1.79-3.2,2.71-4.71,1.86-2.89,2.76-4.13,1.71-2.37,2.47-3.31a12.47,12.47,0,0,1,2.09-2.07,5.16,5.16,0,0,1,1.45.29,13.09,13.09,0,0,1,1.81.71,10.48,10.48,0,0,1,1.58.86c.47.28.73.51.78.71a28.38,28.38,0,0,0-2.2,5.74q-.94,3.39-1.61,7.11t-1,7.39q-.31,3.65-.31,6.53v2c0,.69,0,1.4.08,2.15a6.7,6.7,0,0,1-1.34-.17,9.83,9.83,0,0,1-1.49-.37,8.21,8.21,0,0,1-1.3-.58,1.93,1.93,0,0,1-.83-.66c0-.39,0-.79,0-1.2v-1.2a78.11,78.11,0,0,1,.63-9.67,97.39,97.39,0,0,1,2.16-10.91c.11-.38.23-.91.36-1.57s.26-1.35.39-2.06a9.47,9.47,0,0,0-2.52,2.23,32.54,32.54,0,0,0-2.83,4q-1.41,2.32-2.83,5.17t-2.52,5.83q-1.1,2.93-1.88,5.87A29,29,0,0,0,141.39,334.38Zm33.24-19.76a3,3,0,0,1,.9.17,3.17,3.17,0,0,1,1,.37,3.11,3.11,0,0,1,.71.45c.21.17.32.32.32.46-.53,1.16-1,2.33-1.46,3.51s-.82,2.27-1.14,3.35-.56,2.08-.75,3a15.71,15.71,0,0,0-.23,2.43,7.19,7.19,0,0,0,.23,1.95,1.85,1.85,0,0,0,.79,1.07,4,4,0,0,1-1.22.54,5,5,0,0,1-1.34.2c-1.41,0-2.12-1-2.12-3.05a20.41,20.41,0,0,1,1.49-6.45,26.29,26.29,0,0,1-1.8,3.6,26.73,26.73,0,0,1-2.09,2.93,13.31,13.31,0,0,1-2.16,2.11,5,5,0,0,1-2,1,3,3,0,0,1-2.36-1.45,6.47,6.47,0,0,1-.9-3.55,14.08,14.08,0,0,1,.94-4.88,22.76,22.76,0,0,1,2.4-4.75,18.07,18.07,0,0,1,3.22-3.64,5.75,5.75,0,0,1,3.35-1.57,2.71,2.71,0,0,1,.86.5,5.54,5.54,0,0,1,.95.87,5.7,5.7,0,0,1,.78,1,2.18,2.18,0,0,1,.36.87,7,7,0,0,0-3.27,1.61,17.23,17.23,0,0,0-3,3.3,19.87,19.87,0,0,0-2.2,4.09,11.34,11.34,0,0,0-.86,4.1.93.93,0,0,0,.55,1,5.47,5.47,0,0,0,2.63-2,39.74,39.74,0,0,0,3.62-5.58l.87-1.65c.34-.6.68-1.24,1-1.9s.67-1.32,1-2S174.34,315.26,174.63,314.62Zm18.47.25a7.77,7.77,0,0,1-.27,1.65,8.58,8.58,0,0,1-.51,1.53,6.37,6.37,0,0,1-.67,1.12c-.24.3-.46.45-.67.45s-.46-.23-.51-.62a1.17,1.17,0,0,1,.08-.37l.23-.62a5.53,5.53,0,0,0,.2-.66,1.72,1.72,0,0,0,.12-.58,1.6,1.6,0,0,0-.28-.95.75.75,0,0,0-.67-.41c-1.05,0-1.85.69-2.4,2.06a17.25,17.25,0,0,0-.82,6.08,1.51,1.51,0,0,0,0,.49c.55,0,1,0,1.45,0s.88,0,1.3,0a.85.85,0,0,1,0,.33.74.74,0,0,1-.16.54c-.6.14-1.09.26-1.45.37a4.66,4.66,0,0,0-.79.25.66.66,0,0,0-.35.29,1.18,1.18,0,0,0,0,.37v.66c0,.22,0,.5,0,.83a8.32,8.32,0,0,1-1.81,5.58,7.18,7.18,0,0,1-5,2.44,3.19,3.19,0,0,1-1.14-.33,6.58,6.58,0,0,1-1.14-.75,6,6,0,0,1-.91-1,3.54,3.54,0,0,1-.55-1.12,7.17,7.17,0,0,1,.63-3,8.2,8.2,0,0,1,1.69-2.52,8.47,8.47,0,0,1,2.56-1.78,9.16,9.16,0,0,1,3.23-.83,10.4,10.4,0,0,0-.2-2c-.13-.66-.28-1.3-.43-1.9s-.27-1.24-.4-1.82a8.49,8.49,0,0,1-.19-1.78,5.81,5.81,0,0,1,.43-2.19,8,8,0,0,1,1.14-2,7,7,0,0,1,1.65-1.61,5.57,5.57,0,0,1,2-.91,3.36,3.36,0,0,1,1.14.74,13.63,13.63,0,0,1,1.45,1.32,12.44,12.44,0,0,1,1.26,1.53A3.74,3.74,0,0,1,193.1,314.87Zm-13,18.84a6.06,6.06,0,0,0,1.77-1.19,8.8,8.8,0,0,0,1.5-1.78,9,9,0,0,0,1-2.11,6.58,6.58,0,0,0,.39-2.19,4.29,4.29,0,0,0-1.73.79,9,9,0,0,0-1.77,1.53,9.18,9.18,0,0,0-1.37,1.81,3.43,3.43,0,0,0-.55,1.66A1.76,1.76,0,0,0,180.12,333.71Zm26.58-19.09a3,3,0,0,1,.9.17,4.59,4.59,0,0,1,1.7.82c.21.17.31.32.31.46-.52,1.16-1,2.33-1.46,3.51s-.82,2.27-1.14,3.35-.56,2.08-.74,3a14.69,14.69,0,0,0-.24,2.43,6.78,6.78,0,0,0,.24,1.95,1.83,1.83,0,0,0,.78,1.07,4,4,0,0,1-1.22.54,4.88,4.88,0,0,1-1.33.2c-1.42,0-2.13-1-2.13-3.05a20.21,20.21,0,0,1,1.5-6.45,27.52,27.52,0,0,1-1.81,3.6,25.45,25.45,0,0,1-2.09,2.93,12.92,12.92,0,0,1-2.16,2.11,4.91,4.91,0,0,1-2,1,3,3,0,0,1-2.36-1.45,6.47,6.47,0,0,1-.9-3.55,14.08,14.08,0,0,1,.94-4.88,22.76,22.76,0,0,1,2.4-4.75,17.8,17.8,0,0,1,3.23-3.64,5.72,5.72,0,0,1,3.34-1.57,2.85,2.85,0,0,1,.87.5,5.49,5.49,0,0,1,.94.87,5.77,5.77,0,0,1,.79,1,2.14,2.14,0,0,1,.35.87,7,7,0,0,0-3.26,1.61,16.92,16.92,0,0,0-3,3.3,19.41,19.41,0,0,0-2.2,4.09,11.16,11.16,0,0,0-.87,4.1.93.93,0,0,0,.55,1,5.53,5.53,0,0,0,2.64-2,40.79,40.79,0,0,0,3.61-5.58c.27-.49.55-1,.87-1.65s.68-1.24,1-1.9.67-1.32,1-2S206.41,315.26,206.7,314.62Zm5.77,9a46.18,46.18,0,0,1,2.83-8.93c.95-1.9,1.93-2.85,2.95-2.85a4.76,4.76,0,0,1,2.64,1.12c-.84,1.57-1.5,2.88-2,3.92a18.28,18.28,0,0,0-1,2.81q-.67,2.49-1.42,5.17c-.5,1.76-1,3.46-1.49,5.08s-.92,3.09-1.34,4.38-.71,2.33-.94,3a36.15,36.15,0,0,1-1.73,4.13,13.4,13.4,0,0,1-1.74,2.77,6.07,6.07,0,0,1-1.88,1.57,5,5,0,0,1-2.21.5,6.86,6.86,0,0,1-1.69-.21,7.54,7.54,0,0,1-1.61-.49,5.8,5.8,0,0,1-1.34-.75,4.43,4.43,0,0,1-.94-.95,1.32,1.32,0,0,1,.27-.58.82.82,0,0,1,.4-.29,4.2,4.2,0,0,0,1.41,1.08,4.11,4.11,0,0,0,1.73.33,3.49,3.49,0,0,0,2.25-.79,8.29,8.29,0,0,0,1.92-3.06,47.85,47.85,0,0,0,2.13-6.32Q210.86,330.2,212.47,323.59Zm6.41-15a3.44,3.44,0,0,1,.12-.7,1.94,1.94,0,0,1-.47-1.41,7.74,7.74,0,0,1,.08-1c.07-.44.17-.91.27-1.41l.39-1.57c.16-.52.32-1,.48-1.36a3.07,3.07,0,0,1,1.14.29,6.61,6.61,0,0,1,1.41.7,7.36,7.36,0,0,1,1.3.95,5.27,5.27,0,0,1,.91.95,16.83,16.83,0,0,0-1.18,1.28c-.48.55-.93,1.13-1.38,1.74s-.85,1.13-1.22,1.65a5.18,5.18,0,0,0-.67,1.08,1.62,1.62,0,0,1-.82-.42A1.08,1.08,0,0,1,218.88,308.55Zm16.1,5.66a14.94,14.94,0,0,1-.86,4.42,9.88,9.88,0,0,1-2.05,3.22,14.55,14.55,0,0,1-3.18,2.48,33.66,33.66,0,0,1-4.41,2.15,3.44,3.44,0,0,1,0,.54v.54a8.53,8.53,0,0,0,.08,1.11,4.5,4.5,0,0,0,.27,1.08,2.3,2.3,0,0,0,.56.82,1.32,1.32,0,0,0,.9.29,4.7,4.7,0,0,0,2.08-.49,10.38,10.38,0,0,0,1.93-1.2A16.41,16.41,0,0,0,232,327.6c.55-.58,1-1.1,1.46-1.57.26.25.48.48.67.7a19.57,19.57,0,0,1-3.9,4.13,10.63,10.63,0,0,1-4,2.07,6.07,6.07,0,0,1-5.74-6.32,14,14,0,0,1,.43-3.43,17.62,17.62,0,0,1,1.26-3.39,21,21,0,0,1,1.89-3.1,16.64,16.64,0,0,1,2.32-2.52,12,12,0,0,1,2.55-1.7,6.32,6.32,0,0,1,2.64-.62A5.27,5.27,0,0,1,235,314.21Zm-2.71,1.36a5.73,5.73,0,0,0-2.2.91,9.55,9.55,0,0,0-2.17,2,16.63,16.63,0,0,0-1.81,2.89,17.63,17.63,0,0,0-1.3,3.55,17.76,17.76,0,0,0,5.24-4.05A8.78,8.78,0,0,0,232.27,315.57Zm18.1-.7a7.77,7.77,0,0,1-.27,1.65,8.58,8.58,0,0,1-.51,1.53,6.37,6.37,0,0,1-.67,1.12c-.24.3-.46.45-.67.45s-.46-.23-.51-.62a1.17,1.17,0,0,1,.08-.37l.23-.62a5.53,5.53,0,0,0,.2-.66,1.72,1.72,0,0,0,.12-.58,1.6,1.6,0,0,0-.28-.95.75.75,0,0,0-.67-.41c-1,0-1.85.69-2.4,2.06a17.25,17.25,0,0,0-.82,6.08,1.51,1.51,0,0,0,0,.49c.55,0,1,0,1.45,0s.88,0,1.3,0a.85.85,0,0,1,0,.33.74.74,0,0,1-.16.54c-.6.14-1.09.26-1.45.37a4.66,4.66,0,0,0-.79.25.66.66,0,0,0-.35.29,1.18,1.18,0,0,0,0,.37v.66c0,.22,0,.5,0,.83a8.32,8.32,0,0,1-1.81,5.58,7.18,7.18,0,0,1-5,2.44,3.19,3.19,0,0,1-1.14-.33,6.58,6.58,0,0,1-1.14-.75,6,6,0,0,1-.91-1,3.54,3.54,0,0,1-.55-1.12,7.17,7.17,0,0,1,.63-3,8.2,8.2,0,0,1,1.69-2.52,8.47,8.47,0,0,1,2.56-1.78,9.16,9.16,0,0,1,3.23-.83,10.4,10.4,0,0,0-.2-2c-.13-.66-.28-1.3-.43-1.9s-.27-1.24-.4-1.82a8.49,8.49,0,0,1-.19-1.78,5.81,5.81,0,0,1,.43-2.19,8,8,0,0,1,1.14-2,7,7,0,0,1,1.65-1.61,5.57,5.57,0,0,1,2-.91,3.36,3.36,0,0,1,1.14.74,13.63,13.63,0,0,1,1.45,1.32,12.44,12.44,0,0,1,1.26,1.53A3.74,3.74,0,0,1,250.37,314.87Zm-13,18.84a6.06,6.06,0,0,0,1.77-1.19,8.8,8.8,0,0,0,1.5-1.78,9,9,0,0,0,1-2.11,6.58,6.58,0,0,0,.39-2.19,4.29,4.29,0,0,0-1.73.79,9,9,0,0,0-1.77,1.53,9.18,9.18,0,0,0-1.37,1.81,3.43,3.43,0,0,0-.55,1.66A1.76,1.76,0,0,0,237.39,333.71Zm37.17-8.8c-.6,2-1.21,3.85-1.81,5.5a42.16,42.16,0,0,1-1.93,4.54,29.87,29.87,0,0,1-2.2,3.85,30.2,30.2,0,0,1-2.59,3.35,14.43,14.43,0,0,1-3.74,3,7.84,7.84,0,0,1-3.86,1.08,8.23,8.23,0,0,1-2-.25,7.89,7.89,0,0,1-1.77-.62,5.82,5.82,0,0,1-1.5-.91,2.93,2.93,0,0,1-.94-1.08,1,1,0,0,1,.55-.86c.31.3.58.53.79.7a4.5,4.5,0,0,0,.63.41,1.57,1.57,0,0,0,.63.21,5.31,5.31,0,0,0,.74,0,7.87,7.87,0,0,0,4.37-1.4,15.26,15.26,0,0,0,4-3.93,29.34,29.34,0,0,0,3.5-6.16,49.12,49.12,0,0,0,2.67-8.06l-1.25,2c-.5.8-1.05,1.6-1.66,2.4a20.29,20.29,0,0,1-1.88,2.1,5.16,5.16,0,0,1-1.85,1.28,4.94,4.94,0,0,1-1.34-.28,5.33,5.33,0,0,1-1.3-.62,5.55,5.55,0,0,1-1.06-1,3.11,3.11,0,0,1-.63-1.32,18.58,18.58,0,0,1,.08-1.9,11.87,11.87,0,0,1,.28-1.61,33.89,33.89,0,0,1,1-3.56c.47-1.32,1-2.61,1.61-3.88a30,30,0,0,1,2.05-3.59,11.14,11.14,0,0,1,2.36-2.65,5.14,5.14,0,0,1,.78.08,4.75,4.75,0,0,1,1,.21,7,7,0,0,1,1,.41,2.5,2.5,0,0,1,.82.58,21.79,21.79,0,0,0-1.88,2.77,45.79,45.79,0,0,0-3.23,6.78,13.67,13.67,0,0,0-.47,1.32c-.18.58-.37,1.18-.55,1.82s-.3,1.25-.43,1.86a7.34,7.34,0,0,0-.2,1.44,1.26,1.26,0,0,0,.08.5l.19.25a4.3,4.3,0,0,0,1.89-1.2,19,19,0,0,0,2.68-3.43c.63-1,1.2-2,1.73-2.93s1-2,1.53-3,1.06-2,1.61-3.06,1.15-2.12,1.77-3.22a5.61,5.61,0,0,1,1.11.12,10.68,10.68,0,0,1,1.14.33,3.71,3.71,0,0,1,.94.42,1.7,1.7,0,0,1,.63.45q-1.22,2.73-2.28,5.33C275.74,321.32,275.11,323.09,274.56,324.91Zm30.23-11.2a2.65,2.65,0,0,1,2,.75,2.79,2.79,0,0,1,.74,2.06,3,3,0,0,1-.08.71,3,3,0,0,1-.11.58c-.35-.06-.73-.1-1.14-.13a12.8,12.8,0,0,0-1.5-.08,18.17,18.17,0,0,0-3.42.33c-1.16.19-2.26.36-3.31.49-.6,1.47-1.15,2.88-1.65,4.26s-.93,2.59-1.3,3.72-.61,2.11-.82,2.93a15,15,0,0,0-.32,1.86q3.19-.69,6.42-1.19t6.84-.75a7.65,7.65,0,0,1,.71,1.53,4.93,4.93,0,0,1,.31,1.78v.54a1.87,1.87,0,0,1-.08.57l-2.32-.08h-3.18c-.87,0-1.69,0-2.48,0l-2.32.21q-1.19.12-2.52.33c-.86.14-1.85.3-2.95.5a8.14,8.14,0,0,1-3.5-3.64c.45-1,1.06-2.49,1.85-4.51s1.83-4.75,3.07-8.14a3.39,3.39,0,0,1-2.32-2.06,3.09,3.09,0,0,1,1.14-.5c.63-.22,1.4-.44,2.32-.66.39-1.07.72-2,1-2.81s.54-1.54.75-2.23.39-1.41.55-2.07.35-1.43.51-2.23a3.45,3.45,0,0,1-2.16-.78,2.5,2.5,0,0,1-.79-1.91,4.9,4.9,0,0,1,.08-.78c.08-.3.16-.57.23-.79a14.36,14.36,0,0,0,1.5.17c.5,0,1.14,0,1.93,0,1.65,0,3.2,0,4.64-.12s2.74-.22,3.89-.33l3-.29a16.23,16.23,0,0,1,1.93-.17,2,2,0,0,1,1.61,1,7.18,7.18,0,0,1,1.06,2.81c-.81-.08-1.48-.13-2-.16s-.95,0-1.34,0a28.53,28.53,0,0,0-4,.25c-1.18.13-2.32.28-3.43.45-.15.25-.34.56-.55.95s-.43.92-.74,1.61-.71,1.56-1.18,2.61-1,2.35-1.66,3.92c1-.16,1.93-.29,2.8-.37A19,19,0,0,1,304.79,313.71Zm21.14,1.16a7.81,7.81,0,0,1-.28,1.65,8.58,8.58,0,0,1-.51,1.53,5.81,5.81,0,0,1-.67,1.12c-.24.3-.46.45-.67.45s-.46-.23-.51-.62a1.55,1.55,0,0,1,.08-.37c.08-.19.16-.4.23-.62a5.53,5.53,0,0,0,.2-.66,1.72,1.72,0,0,0,.12-.58,1.53,1.53,0,0,0-.28-.95.73.73,0,0,0-.66-.41c-1.05,0-1.85.69-2.4,2.06a17.21,17.21,0,0,0-.83,6.08,1.51,1.51,0,0,0,0,.49c.55,0,1,0,1.46,0s.87,0,1.29,0a.85.85,0,0,1,0,.33.74.74,0,0,1-.16.54c-.6.14-1.08.26-1.45.37a5,5,0,0,0-.79.25.66.66,0,0,0-.35.29,1.18,1.18,0,0,0,0,.37v.66a6.47,6.47,0,0,1,0,.83,8.27,8.27,0,0,1-1.81,5.58,7.15,7.15,0,0,1-5,2.44,3.31,3.31,0,0,1-1.14-.33,6.58,6.58,0,0,1-1.14-.75,5.55,5.55,0,0,1-.9-1,3.34,3.34,0,0,1-.55-1.12,7.17,7.17,0,0,1,.63-3,8,8,0,0,1,1.69-2.52,8.31,8.31,0,0,1,2.55-1.78,9.22,9.22,0,0,1,3.23-.83,10.4,10.4,0,0,0-.2-2c-.13-.66-.27-1.3-.43-1.9s-.26-1.24-.39-1.82a8.52,8.52,0,0,1-.2-1.78,5.81,5.81,0,0,1,.43-2.19,8,8,0,0,1,1.14-2,7.23,7.23,0,0,1,1.66-1.61,5.53,5.53,0,0,1,2-.91,3.36,3.36,0,0,1,1.14.74A13.71,13.71,0,0,1,324,312.1a14.58,14.58,0,0,1,1.26,1.53A3.94,3.94,0,0,1,325.93,314.87Zm-13,18.84a6.06,6.06,0,0,0,1.77-1.19,9.09,9.09,0,0,0,1.49-1.78,8.62,8.62,0,0,0,1-2.11,6.35,6.35,0,0,0,.4-2.19,4.23,4.23,0,0,0-1.73.79,9,9,0,0,0-1.77,1.53,9.65,9.65,0,0,0-1.38,1.81,3.43,3.43,0,0,0-.55,1.66A1.75,1.75,0,0,0,313,333.71Zm15.32-18.22a2.62,2.62,0,0,1-.35-1,7.31,7.31,0,0,1-.16-1.41l2,.17,1.73.08c.39-.83.81-1.64,1.26-2.44s.92-1.57,1.34-2.23.85-1.27,1.21-1.73a5,5,0,0,1,.91-.91,3.72,3.72,0,0,1,1,.16,7.5,7.5,0,0,1,1.26.37,8.72,8.72,0,0,1,1.14.46,2.06,2.06,0,0,1,.71.49c-.79,1-1.47,2-2,2.94s-1.15,1.9-1.8,3.06c.52,0,1,0,1.57-.05s1.1-.06,1.65-.12a1.58,1.58,0,0,1,.32.54,1.8,1.8,0,0,1,.11.62,14.22,14.22,0,0,1-4.68.82c-.65,1.33-1.24,2.65-1.77,4s-.93,2.55-1.3,3.76-.61,2.36-.82,3.43a17.86,17.86,0,0,0-.28,2.89c0,1.22.44,1.89,1.3,2a8.73,8.73,0,0,0,2.24-.62,7.21,7.21,0,0,0,1.89-1.16,1.87,1.87,0,0,1,.28.62,4.28,4.28,0,0,1-.83.87,11,11,0,0,1-1.22.95,9.68,9.68,0,0,1-1.3.83,3.29,3.29,0,0,1-.94.37,5.65,5.65,0,0,1-2-.46,8.48,8.48,0,0,1-1.81-1,6.34,6.34,0,0,1-1.29-1.36,2.78,2.78,0,0,1-.52-1.53,16.08,16.08,0,0,1,.24-2.48c.18-1,.43-2.12.75-3.31s.68-2.42,1.1-3.72.88-2.57,1.38-3.84Zm25.59-1.28a14.94,14.94,0,0,1-.86,4.42,9.88,9.88,0,0,1-2.05,3.22,14.55,14.55,0,0,1-3.18,2.48,33.66,33.66,0,0,1-4.41,2.15,3.44,3.44,0,0,1,0,.54v.54a8.53,8.53,0,0,0,.08,1.11,4.5,4.5,0,0,0,.27,1.08,2.3,2.3,0,0,0,.56.82,1.32,1.32,0,0,0,.9.29,4.7,4.7,0,0,0,2.08-.49,10.38,10.38,0,0,0,1.93-1.2,16.41,16.41,0,0,0,1.73-1.57c.55-.58,1-1.1,1.46-1.57.26.25.48.48.67.7a19.57,19.57,0,0,1-3.9,4.13,10.63,10.63,0,0,1-4,2.07,6.07,6.07,0,0,1-5.74-6.32,14,14,0,0,1,.43-3.43,17.62,17.62,0,0,1,1.26-3.39,21,21,0,0,1,1.89-3.1,16.64,16.64,0,0,1,2.32-2.52,12,12,0,0,1,2.55-1.7,6.32,6.32,0,0,1,2.64-.62A5.27,5.27,0,0,1,353.86,314.21Zm-2.71,1.36a5.73,5.73,0,0,0-2.2.91,9.55,9.55,0,0,0-2.17,2,16.63,16.63,0,0,0-1.81,2.89,17.63,17.63,0,0,0-1.3,3.55,17.76,17.76,0,0,0,5.24-4.05A8.78,8.78,0,0,0,351.15,315.57Zm6.45-14.38a3,3,0,0,1,.79.83,6,6,0,0,1,.74,1.24,6.36,6.36,0,0,1,.55,1.36,4.89,4.89,0,0,1,.2,1.28c-1,.72-1.88,1.31-2.64,1.78s-1.4.85-2,1.16a12.69,12.69,0,0,1-1.54.62,5.3,5.3,0,0,1-1.29.16,3.23,3.23,0,0,1-2.17-.78,7.58,7.58,0,0,0,1.81-1,14.38,14.38,0,0,0,1.89-1.69,18.31,18.31,0,0,0,1.89-2.23A24.06,24.06,0,0,0,357.6,301.19Zm.13,14.3a2.8,2.8,0,0,1-.35-1,8.2,8.2,0,0,1-.16-1.41l2,.17,1.73.08c.39-.83.81-1.64,1.26-2.44s.92-1.57,1.34-2.23a19.71,19.71,0,0,1,1.22-1.73,4.71,4.71,0,0,1,.9-.91,3.72,3.72,0,0,1,1,.16,7.5,7.5,0,0,1,1.26.37A8.72,8.72,0,0,1,369,307a2.06,2.06,0,0,1,.71.49q-1.19,1.57-2,2.94c-.56.88-1.16,1.9-1.81,3.06.52,0,1.05,0,1.57-.05s1.1-.06,1.65-.12a1.58,1.58,0,0,1,.32.54,1.8,1.8,0,0,1,.11.62,14.22,14.22,0,0,1-4.68.82c-.65,1.33-1.24,2.65-1.77,4s-.93,2.55-1.29,3.76-.62,2.36-.83,3.43a17.86,17.86,0,0,0-.28,2.89c0,1.22.44,1.89,1.3,2a8.73,8.73,0,0,0,2.24-.62,7.21,7.21,0,0,0,1.89-1.16,1.87,1.87,0,0,1,.28.62,4.28,4.28,0,0,1-.83.87,11,11,0,0,1-1.22.95,9.68,9.68,0,0,1-1.3.83,3.29,3.29,0,0,1-.94.37,5.65,5.65,0,0,1-2-.46,8.73,8.73,0,0,1-1.81-1,6.34,6.34,0,0,1-1.29-1.36,2.84,2.84,0,0,1-.51-1.53,15.9,15.9,0,0,1,.23-2.48c.18-1,.43-2.12.75-3.31s.68-2.42,1.1-3.72.88-2.57,1.38-3.84Zm11.55,13.06c0-.25,0-.55,0-.91s.13-.88.24-1.49.23-1.39.39-2.27.41-1.94.67-3.18c.05-.28.17-.72.35-1.32a19,19,0,0,1,.71-1.91,14.22,14.22,0,0,1,1.1-2,4.32,4.32,0,0,1,1.57-1.4,6.59,6.59,0,0,1,1.77.86,5.78,5.78,0,0,1,1.89,1.86,16.49,16.49,0,0,0-1.53,2.15c-.39.72-.76,1.46-1.1,2.23s-.62,1.57-.91,2.4-.56,1.69-.9,2.6-.55,1.57-.79,2.4a8.9,8.9,0,0,0-.39,2.11,8.12,8.12,0,0,1,0,1c0,.22-.07.33-.2.33a2.35,2.35,0,0,1-.63-.2,4.78,4.78,0,0,1-1-.62,5.64,5.64,0,0,1-.87-1.12A3,3,0,0,1,369.28,328.55Zm7.51-17.94a3.51,3.51,0,0,1,.12-.74,1.78,1.78,0,0,1-.35-.62,2.64,2.64,0,0,1-.12-.74,8.77,8.77,0,0,1,.08-1c.08-.45.17-.91.27-1.41s.24-1,.4-1.53.31-1.05.47-1.49a3.07,3.07,0,0,1,1.14.29,7,7,0,0,1,1.42.71,7.16,7.16,0,0,1,1.29,1,4.67,4.67,0,0,1,.91.95c-.29.3-.67.73-1.14,1.28s-.93,1.09-1.38,1.69-.85,1.13-1.22,1.65a10.38,10.38,0,0,0-.71,1.12,1.53,1.53,0,0,1-.82-.41A1.08,1.08,0,0,1,376.79,310.61Zm2,13.43a11.65,11.65,0,0,1,.91-4.54,14.24,14.24,0,0,1,2.44-3.93,12.5,12.5,0,0,1,3.46-2.77,8.4,8.4,0,0,1,4.05-1.07,4.33,4.33,0,0,1,3.14,1.07,4.07,4.07,0,0,1,1.11,3.06,6.45,6.45,0,0,1-.28,1.86,6,6,0,0,1-.67,1.57,3.89,3.89,0,0,1-.94,1.16,1.82,1.82,0,0,1-1.1.41,1.93,1.93,0,0,1-1-.29,2.91,2.91,0,0,1-.78-.82q2.63-2.52,2.63-4.59,0-1.2-.9-1.2a3.79,3.79,0,0,0-2,.79,11.07,11.07,0,0,0-2.28,2.06,14.2,14.2,0,0,0-3.46,9.47c0,2.23.47,3.56,1.41,4a6,6,0,0,0,1.38-.37,15.59,15.59,0,0,0,1.69-.74c.61-.33,1.22-.7,1.85-1.12a21.22,21.22,0,0,0,1.89-1.32,1,1,0,0,1,.27.37,1.09,1.09,0,0,1,.12.46,14,14,0,0,1-1.53,1.69,20.07,20.07,0,0,1-1.81,1.53,16.3,16.3,0,0,1-1.85,1.12,5.33,5.33,0,0,1-1.53.62,5.48,5.48,0,0,1-2.44-.87,7.36,7.36,0,0,1-2-1.86,10.46,10.46,0,0,1-1.34-2.65A10.3,10.3,0,0,1,378.77,324Zm29.85-9.42a3,3,0,0,1,.91.17,3.38,3.38,0,0,1,1,.37,3.11,3.11,0,0,1,.71.45c.21.17.31.32.31.46-.52,1.16-1,2.33-1.45,3.51s-.83,2.27-1.14,3.35a30.85,30.85,0,0,0-.75,3,14.69,14.69,0,0,0-.24,2.43,6.78,6.78,0,0,0,.24,1.95,1.85,1.85,0,0,0,.79,1.07,4.07,4.07,0,0,1-1.22.54,5,5,0,0,1-1.34.2c-1.42,0-2.12-1-2.12-3.05a20.14,20.14,0,0,1,1.49-6.45,26.33,26.33,0,0,1-1.81,3.6,25.43,25.43,0,0,1-2.08,2.93,13,13,0,0,1-2.17,2.11,4.88,4.88,0,0,1-2,1,3,3,0,0,1-2.36-1.45,6.39,6.39,0,0,1-.91-3.55,14.1,14.1,0,0,1,.95-4.88,22.76,22.76,0,0,1,2.4-4.75,17.77,17.77,0,0,1,3.22-3.64,5.75,5.75,0,0,1,3.34-1.57,2.64,2.64,0,0,1,.87.5,5.14,5.14,0,0,1,.94.87,5.34,5.34,0,0,1,.79,1,2,2,0,0,1,.35.87,7,7,0,0,0-3.26,1.61,17.23,17.23,0,0,0-3,3.3,19.87,19.87,0,0,0-2.2,4.09,11.16,11.16,0,0,0-.87,4.1.94.94,0,0,0,.55,1,5.53,5.53,0,0,0,2.64-2,40.67,40.67,0,0,0,3.62-5.58c.26-.49.55-1,.86-1.65s.69-1.24,1-1.9.66-1.32,1-2S408.33,315.26,408.62,314.62Z" transform="translate(-122.52 -80.75)"/></svg>